<svg width="102" height="22" viewBox="0 0 102 22" fill="none" xmlns="http://www.w3.org/2000/svg">
<g id="Review">
<path id="Star 25" d="M10.0489 2.92705C10.3483 2.00574 11.6517 2.00574 11.9511 2.92705L13.2451 6.90983C13.379 7.32185 13.763 7.60081 14.1962 7.60081H18.3839C19.3527 7.60081 19.7554 8.84043 18.9717 9.40983L15.5838 11.8713C15.2333 12.126 15.0866 12.5773 15.2205 12.9894L16.5146 16.9721C16.8139 17.8934 15.7595 18.6596 14.9757 18.0902L11.5878 15.6287C11.2373 15.374 10.7627 15.374 10.4122 15.6287L7.02426 18.0902C6.24054 18.6596 5.18607 17.8934 5.48542 16.9721L6.7795 12.9894C6.91338 12.5773 6.76672 12.126 6.41623 11.8713L3.02827 9.40983C2.24456 8.84043 2.64734 7.60081 3.61606 7.60081H7.8038C8.23703 7.60081 8.62099 7.32185 8.75486 6.90983L10.0489 2.92705Z" fill="#FEB618"/>
<path id="Star 26" d="M30.0489 2.92705C30.3483 2.00574 31.6517 2.00574 31.9511 2.92705L33.2451 6.90983C33.379 7.32185 33.763 7.60081 34.1962 7.60081H38.3839C39.3527 7.60081 39.7554 8.84043 38.9717 9.40983L35.5838 11.8713C35.2333 12.126 35.0866 12.5773 35.2205 12.9894L36.5146 16.9721C36.8139 17.8934 35.7595 18.6596 34.9757 18.0902L31.5878 15.6287C31.2373 15.374 30.7627 15.374 30.4122 15.6287L27.0243 18.0902C26.2405 18.6596 25.1861 17.8934 25.4854 16.9721L26.7795 12.9894C26.9134 12.5773 26.7667 12.126 26.4162 11.8713L23.0283 9.40983C22.2446 8.84043 22.6473 7.60081 23.6161 7.60081H27.8038C28.237 7.60081 28.621 7.32185 28.7549 6.90983L30.0489 2.92705Z" fill="#FEB618"/>
<path id="Star 27" d="M50.0489 2.92705C50.3483 2.00574 51.6517 2.00574 51.9511 2.92705L53.2451 6.90983C53.379 7.32185 53.763 7.60081 54.1962 7.60081H58.3839C59.3527 7.60081 59.7554 8.84043 58.9717 9.40983L55.5838 11.8713C55.2333 12.126 55.0866 12.5773 55.2205 12.9894L56.5146 16.9721C56.8139 17.8934 55.7595 18.6596 54.9757 18.0902L51.5878 15.6287C51.2373 15.374 50.7627 15.374 50.4122 15.6287L47.0243 18.0902C46.2405 18.6596 45.1861 17.8934 45.4854 16.9721L46.7795 12.9894C46.9134 12.5773 46.7667 12.126 46.4162 11.8713L43.0283 9.40983C42.2446 8.84043 42.6473 7.60081 43.6161 7.60081H47.8038C48.237 7.60081 48.621 7.32185 48.7549 6.90983L50.0489 2.92705Z" fill="#FEB618"/>
<path id="Star 28" d="M70.0489 2.92705C70.3483 2.00574 71.6517 2.00574 71.9511 2.92705L73.2451 6.90983C73.379 7.32185 73.763 7.60081 74.1962 7.60081H78.3839C79.3527 7.60081 79.7554 8.84043 78.9717 9.40983L75.5838 11.8713C75.2333 12.126 75.0866 12.5773 75.2205 12.9894L76.5146 16.9721C76.8139 17.8934 75.7595 18.6596 74.9757 18.0902L71.5878 15.6287C71.2373 15.374 70.7627 15.374 70.4122 15.6287L67.0243 18.0902C66.2405 18.6596 65.1861 17.8934 65.4854 16.9721L66.7795 12.9894C66.9134 12.5773 66.7667 12.126 66.4162 11.8713L63.0283 9.40983C62.2446 8.84043 62.6473 7.60081 63.6161 7.60081H67.8038C68.237 7.60081 68.621 7.32185 68.7549 6.90983L70.0489 2.92705Z" fill="#FEB618"/>
<path id="Star 29" d="M90.0489 2.92705C90.3483 2.00574 91.6517 2.00574 91.9511 2.92705L93.2451 6.90983C93.379 7.32185 93.763 7.60081 94.1962 7.60081H98.3839C99.3527 7.60081 99.7554 8.84043 98.9717 9.40983L95.5838 11.8713C95.2333 12.126 95.0866 12.5773 95.2205 12.9894L96.5146 16.9721C96.8139 17.8934 95.7595 18.6596 94.9757 18.0902L91.5878 15.6287C91.2373 15.374 90.7627 15.374 90.4122 15.6287L87.0243 18.0902C86.2405 18.6596 85.1861 17.8934 85.4854 16.9721L86.7795 12.9894C86.9134 12.5773 86.7667 12.126 86.4162 11.8713L83.0283 9.40983C82.2446 8.84043 82.6473 7.60081 83.6161 7.60081H87.8038C88.237 7.60081 88.621 7.32185 88.7549 6.90983L90.0489 2.92705Z" fill="#FEB618"/>
</g>
</svg>
